<?xml version="1.0" encoding="utf-8"?>
<!-- Generator: Adobe Illustrator 28.3.0, SVG Export Plug-In . SVG Version: 6.00 Build 0)  -->
<svg version="1.1" id="Camada_1" xmlns="http://www.w3.org/2000/svg" xmlns:xlink="http://www.w3.org/1999/xlink" x="0px" y="0px"
	 viewBox="0 0 1000 1000" style="enable-background:new 0 0 1000 1000;" xml:space="preserve">
<style type="text/css">
	.st0{fill:#1D1D1B;}
</style>
<g>
	<path class="st0" d="M403.93,407.26c0,13.57,0.41,24.69,1.22,33.38h-9.36c-2.17-20.89-4.89-36.43-8.14-46.6
		c-3.26-10.17-8.96-17.64-17.1-22.38c-8.14-4.75-20.62-7.12-37.44-7.12h-21.98V596.1c0,11.39,1.08,19.67,3.26,24.82
		c2.16,5.16,5.96,8.69,11.39,10.58c5.43,1.9,14.24,3.12,26.45,3.67v8.14c-14.11-0.81-34.05-1.22-59.83-1.22
		c-27.13,0-47.21,0.41-60.24,1.22v-8.14c12.21-0.54,21.03-1.76,26.46-3.67c5.43-1.89,9.22-5.43,11.4-10.58
		c2.16-5.15,3.25-13.43,3.25-24.82V364.53h-21.98c-16.83,0-29.3,2.37-37.44,7.12c-8.14,4.75-13.84,12.21-17.1,22.38
		s-5.97,25.71-8.14,46.6h-9.36c0.82-8.68,1.22-19.81,1.22-33.38c0-15.47-0.95-32.83-2.85-52.09c22.52,0.81,60.78,1.22,114.77,1.22
		c53.72,0,91.84-0.41,114.37-1.22C404.88,374.43,403.93,391.79,403.93,407.26z"/>
	<path class="st0" d="M822.36,643.31c-18.45-0.81-49.52-1.22-93.2-1.22c-52.09,0-91.44,0.41-118.02,1.22v-8.14
		c9.77-0.54,16.89-1.63,21.36-3.26c4.48-1.63,7.53-4.75,9.16-9.36c1.63-4.61,2.45-12.07,2.45-22.38V398.3
		c0-10.31-0.82-17.77-2.45-22.38c-1.63-4.61-4.68-7.73-9.16-9.36c-4.47-1.63-11.6-2.71-21.36-3.26v-8.14
		c26.59,0.81,65.93,1.22,118.02,1.22c39.89,0,68.24-0.41,85.07-1.22c-1.9,17.91-2.85,33.92-2.85,48.03
		c0,10.58,0.41,18.99,1.22,25.23h-9.36c-1.9-17.64-4.34-30.73-7.33-39.28c-2.99-8.55-8-14.78-15.06-18.72
		c-7.05-3.93-17.77-5.9-32.15-5.9h-33.78c-9.77,0-16.89,0.75-21.36,2.24c-4.48,1.5-7.53,4.55-9.16,9.16
		c-1.62,4.61-2.44,12.08-2.44,22.38v96.05h26.86c9.49,0,16.83-2.24,21.98-6.72c5.14-4.48,8.61-9.77,10.38-15.87
		c1.76-6.11,3.19-13.77,4.27-23l1.22-8.14h9.36c-0.81,11.39-1.21,24.15-1.21,38.25v19.54c0,13.84,0.81,33.1,2.44,57.79h-9.36
		c-0.28-1.89-1.09-8.47-2.44-19.73c-1.36-11.26-5.09-19.74-11.19-25.44c-6.11-5.7-14.58-8.55-25.44-8.55h-26.86v97.68
		c0,10.32,0.82,17.77,2.44,22.38c1.63,4.61,4.68,7.67,9.16,9.16c4.47,1.5,11.59,2.24,21.36,2.24h29.71
		c16.83,0,29.64-2.24,38.46-6.72c8.81-4.48,15.26-11.66,19.33-21.57c4.07-9.9,7.05-24.48,8.95-43.75h9.36
		c-0.82,7.33-1.23,17.09-1.23,29.3C819.51,606.68,820.46,624.05,822.36,643.31z"/>
	<rect x="509" y="239.71" class="st0" width="3" height="520.58"/>
</g>
</svg>
