<?xml version="1.0" standalone="no"?>
<svg xmlns:xlink="http://www.w3.org/1999/xlink" id="wave" style="transform:rotate(0deg); transition: 0.3s" viewBox="0 0 1440 140" version="1.1" xmlns="http://www.w3.org/2000/svg"><defs><linearGradient id="sw-gradient-0" x1="0" x2="0" y1="1" y2="0"><stop stop-color="rgba(255, 255, 255, 1)" offset="0%"/><stop stop-color="rgba(255, 255, 255, 1)" offset="100%"/></linearGradient></defs><path style="transform:translate(0, 0px); opacity:1" fill="url(#sw-gradient-0)" d="M0,112L80,107.3C160,103,320,93,480,95.7C640,98,800,112,960,119C1120,126,1280,126,1440,112C1600,98,1760,70,1920,49C2080,28,2240,14,2400,7C2560,0,2720,0,2880,14C3040,28,3200,56,3360,65.3C3520,75,3680,65,3840,65.3C4000,65,4160,75,4320,84C4480,93,4640,103,4800,98C4960,93,5120,75,5280,74.7C5440,75,5600,93,5760,95.7C5920,98,6080,84,6240,65.3C6400,47,6560,23,6720,21C6880,19,7040,37,7200,37.3C7360,37,7520,19,7680,21C7840,23,8000,47,8160,60.7C8320,75,8480,79,8640,67.7C8800,56,8960,28,9120,16.3C9280,5,9440,9,9600,23.3C9760,37,9920,61,10080,77C10240,93,10400,103,10560,107.3C10720,112,10880,112,11040,102.7C11200,93,11360,75,11440,65.3L11520,56L11520,140L11440,140C11360,140,11200,140,11040,140C10880,140,10720,140,10560,140C10400,140,10240,140,10080,140C9920,140,9760,140,9600,140C9440,140,9280,140,9120,140C8960,140,8800,140,8640,140C8480,140,8320,140,8160,140C8000,140,7840,140,7680,140C7520,140,7360,140,7200,140C7040,140,6880,140,6720,140C6560,140,6400,140,6240,140C6080,140,5920,140,5760,140C5600,140,5440,140,5280,140C5120,140,4960,140,4800,140C4640,140,4480,140,4320,140C4160,140,4000,140,3840,140C3680,140,3520,140,3360,140C3200,140,3040,140,2880,140C2720,140,2560,140,2400,140C2240,140,2080,140,1920,140C1760,140,1600,140,1440,140C1280,140,1120,140,960,140C800,140,640,140,480,140C320,140,160,140,80,140L0,140Z"/></svg>